<svg xmlns="http://www.w3.org/2000/svg" version="1.1" xmlns:xlink="http://www.w3.org/1999/xlink" xmlns:svgjs="http://svgjs.dev/svgjs" width="1500" height="1500" viewBox="0 0 1500 1500"><rect width="1500" height="1500" fill="#f4efec"></rect><g transform="matrix(0.6666666666666666,0,0,0.6666666666666666,249.39393939393938,438.5856950067477)"><svg viewBox="0 0 396 247" data-background-color="#f4efec" preserveAspectRatio="xMidYMid meet" height="935" width="1500" xmlns="http://www.w3.org/2000/svg" xmlns:xlink="http://www.w3.org/1999/xlink"><g id="tight-bounds" transform="matrix(1,0,0,1,0.2400000000000091,-0.09999999999999432)"><svg viewBox="0 0 395.52 247.2" height="247.2" width="395.52"><g><svg></svg></g><g><svg viewBox="0 0 395.52 247.2" height="247.2" width="395.52"><g transform="matrix(1,0,0,1,75.54432,80.4998091267185)"><svg viewBox="0 0 244.43135999999998 86.200381746563" height="86.200381746563" width="244.43135999999998"><g><svg viewBox="0 0 244.43135999999998 86.200381746563" height="86.200381746563" width="244.43135999999998"><g><svg viewBox="0 0 244.43135999999998 86.200381746563" height="86.200381746563" width="244.43135999999998"><g><svg viewBox="0 0 244.43135999999998 86.200381746563" height="86.200381746563" width="244.43135999999998"><g id="textblocktransform"><svg viewBox="0 0 244.43135999999998 86.200381746563" height="86.200381746563" width="244.43135999999998" id="textblock"><g><svg viewBox="0 0 244.43135999999998 56.348295191704835" height="56.348295191704835" width="244.43135999999998"><g transform="matrix(1,0,0,1,0,0)"><svg width="244.43135999999998" viewBox="1.45 -34 207.33 47.8" height="56.348295191704835" data-palette-color="#5201fe"><path d="M8.5 0.65L8.5 0.65Q6.65 0.65 5.05 0.1 3.45-0.45 2.45-1.45 1.45-2.45 1.45-3.85L1.45-3.85Q1.45-4.6 1.83-5.28 2.2-5.95 3.05-5.95L3.05-5.95Q3.5-5.95 4-5.7L4-5.7Q4.9-5.2 6.3-4.78 7.7-4.35 9.25-4.35L9.25-4.35Q11-4.35 12.35-4.85 13.7-5.35 13.7-6.25L13.7-6.25Q13.7-6.95 12.68-7.25 11.65-7.55 9.25-7.9L9.25-7.9Q7.6-8.2 6.05-8.6 4.5-9 3.5-9.98 2.5-10.95 2.5-12.85L2.5-12.85Q2.5-14.7 3.53-16.43 4.55-18.15 6.6-19.3 8.65-20.45 11.6-20.45L11.6-20.45Q13.15-20.45 14.6-20.1 16.05-19.75 17-19.05 17.95-18.35 17.95-17.3L17.95-17.3Q17.95-16.4 17.32-15.65 16.7-14.9 15.88-14.43 15.05-13.95 14.5-13.95L14.5-13.95Q14.1-13.95 13.55-14.5L13.55-14.5Q12.7-15.2 11.68-15.48 10.65-15.75 9.65-15.75L9.65-15.75Q8.15-15.75 7.23-15.3 6.3-14.85 6.3-14.15L6.3-14.15Q6.3-13.5 7.08-13.1 7.85-12.7 9-12.53 10.15-12.35 11.2-12.2L11.2-12.2Q14.1-11.8 15.8-10.83 17.5-9.85 17.5-7.4L17.5-7.4Q17.5-5.5 16.43-3.63 15.35-1.75 13.33-0.55 11.3 0.65 8.5 0.65ZM23 13.8L23 13.8Q20.95 13.8 19.47 12.7 18 11.6 18 9.75L18 9.75Q18 8.3 18.87 7.28 19.75 6.25 21.05 6.25L21.05 6.25Q21.65 6.25 21.9 6.45 22.15 6.65 22.3 6.9L22.3 6.9Q22.7 7.55 23.22 8.03 23.75 8.5 24.65 8.5L24.65 8.5Q25.85 8.5 26.97 7.65 28.1 6.8 29.05 5.7L29.05 5.7Q29.9 4.75 31.1 2.98 32.3 1.2 33.5-1.05L33.5-1.05Q32.4-0.1 31.45 0.33 30.5 0.75 29.65 0.75L29.65 0.75Q28.6 0.75 27.6-0.03 26.6-0.8 26.35-2.95L26.35-2.95Q26.2-4.6 25.77-6.6 25.35-8.6 24.72-10.48 24.1-12.35 23.2-13.65L23.2-13.65Q22.85-14.25 22.4-14.55 21.95-14.85 21.1-14.95L21.1-14.95Q20.5-15 20.32-15.3 20.15-15.6 20.15-16.25L20.15-16.25Q20.15-18.05 21.15-19.15 22.15-20.25 23.85-20.25L23.85-20.25Q25.9-20.25 26.8-18.68 27.7-17.1 28.35-14.85L28.35-14.85Q28.6-13.95 28.87-12.48 29.15-11 29.37-9.3 29.6-7.6 29.7-6.05L29.7-6.05Q29.75-4.95 30.95-4.95L30.95-4.95Q32.55-4.95 34-5.95 35.45-6.95 36.37-8.55 37.3-10.15 37.3-11.9L37.3-11.9Q37.3-12.9 37.05-13.7 36.8-14.5 36.2-15.1L36.2-15.1Q35.7-15.7 35.4-16.07 35.1-16.45 35.1-16.95L35.1-16.95Q35.1-17.8 35.9-18.55 36.7-19.3 37.82-19.8 38.95-20.3 39.8-20.3L39.8-20.3Q41.3-20.3 41.8-18.88 42.3-17.45 42.05-15.75L42.05-15.75Q41.75-13.4 40.85-10.2 39.95-7 38.52-3.5 37.1 0 35.27 3.28 33.45 6.55 31.4 9L31.4 9Q29.65 11.15 27.5 12.48 25.35 13.8 23 13.8ZM48.55 0.55L48.55 0.55Q46.75 0.55 46.95-0.65L46.95-0.65Q47.5-2.8 47.87-5.03 48.25-7.25 48.25-9.3L48.25-9.3Q48.25-11.95 47.92-13.18 47.6-14.4 47.05-14.88 46.5-15.35 45.7-15.6L45.7-15.6Q45.35-15.75 45.07-16 44.8-16.25 44.8-16.7L44.8-16.7Q44.8-17.4 45.35-18.25 45.9-19.1 46.92-19.73 47.95-20.35 49.25-20.35L49.25-20.35Q50.95-20.35 51.6-19.18 52.25-18 52.25-16.1L52.25-16.1Q52.25-14.85 52-13.3 51.75-11.75 51.5-10.5L51.5-10.5 51.65-10.45Q52.65-13.1 54.07-15.38 55.5-17.65 57.4-19.05 59.3-20.45 61.8-20.45L61.8-20.45Q64.45-20.45 65.84-18.85 67.25-17.25 67.25-14.85L67.25-14.85Q67.25-13.85 67.02-12.95 66.8-12.05 66.55-11.2L66.55-11.2Q66.3-10.4 66.12-9.55 65.95-8.7 65.95-7.85L65.95-7.85Q65.95-5 68.65-4L68.65-4Q69.34-3.7 69.34-3.1L69.34-3.1Q69.34-2.65 69.05-1.8 68.75-0.95 67.95-0.23 67.15 0.5 65.59 0.5L65.59 0.5Q63.6 0.5 62.5-0.93 61.4-2.35 61.4-4.55L61.4-4.55Q61.4-5.8 61.67-7.08 61.95-8.35 62.25-9.45L62.25-9.45Q62.45-10.3 62.62-11.13 62.8-11.95 62.8-12.6L62.8-12.6Q62.8-14.9 60.4-14.9L60.4-14.9Q58.35-14.9 56.8-13.38 55.25-11.85 54.15-9.55 53.05-7.25 52.35-4.9L52.35-4.9 52.35-3.7Q52.35-1.85 51.32-0.65 50.3 0.55 48.55 0.55ZM74.44 0.55L74.44 0.55Q73.89 0.55 73.39 0.23 72.89-0.1 72.99-0.65L72.99-0.65Q73.74-4.65 74.27-8.78 74.79-12.9 74.79-17.1L74.79-17.1Q74.79-20.8 74.54-23.8 74.29-26.8 72.94-29.55L72.94-29.55Q72.69-30.1 72.54-30.5 72.39-30.9 72.39-31.25L72.39-31.25Q72.39-32.2 73.49-33.1 74.59-34 75.84-34L75.84-34Q77.64-34 78.29-31.8 78.94-29.6 78.94-25.3L78.94-25.3Q78.94-20.15 78.34-16.32 77.74-12.5 77.29-10.5L77.29-10.5 77.49-10.4Q78.49-12.85 80.04-15.13 81.59-17.4 83.62-18.9 85.64-20.4 88.04-20.4L88.04-20.4Q90.39-20.4 91.67-19 92.94-17.6 92.94-15.65L92.94-15.65Q92.94-13.35 91.29-11.55 89.64-9.75 86.99-8.55L86.99-8.55Q87.64-6.85 88.84-5.88 90.04-4.9 91.89-4.9L91.89-4.9Q92.49-4.9 92.89-5L92.89-5Q93.54-5.15 93.54-3.75L93.54-3.75Q93.54-2.95 93.24-1.95 92.94-0.95 92.07-0.23 91.19 0.5 89.44 0.5L89.44 0.5Q87.09 0.5 85.62-0.88 84.14-2.25 83.32-4.28 82.49-6.3 82.04-8.3L82.04-8.3Q81.64-10.15 83.29-10.25L83.29-10.25Q85.04-10.45 86.24-11.3 87.44-12.15 87.44-13.55L87.44-13.55Q87.44-15.15 85.89-15.15L85.89-15.15Q84.89-15.15 83.87-14.43 82.84-13.7 81.97-12.7 81.09-11.7 80.54-10.75L80.54-10.75Q79.79-9.45 79.24-8.2 78.69-6.95 78.34-5.7L78.34-5.7 78.34-3.7Q78.34-1.85 77.27-0.65 76.19 0.55 74.44 0.55ZM107.64 0.65L107.64 0.65Q105.79 0.65 104.47 0 103.14-0.65 102.14-1.65L102.14-1.65Q101.64-0.8 100.97-0.13 100.29 0.55 99.44 0.55L99.44 0.55Q98.89 0.55 98.39 0.23 97.89-0.1 97.99-0.65L97.99-0.65Q98.74-4.65 99.27-8.75 99.79-12.85 99.79-17.1L99.79-17.1Q99.79-20.65 99.54-23.75 99.29-26.85 97.99-29.45L97.99-29.45Q97.74-29.95 97.57-30.4 97.39-30.85 97.39-31.25L97.39-31.25Q97.39-32.2 98.49-33.1 99.59-34 100.84-34L100.84-34Q102.64-34 103.29-31.8 103.94-29.6 103.94-25.3L103.94-25.3Q103.94-21.65 103.62-18.63 103.29-15.6 102.89-13.45L102.89-13.45Q104.29-16.4 106.72-18.43 109.14-20.45 112.19-20.45L112.19-20.45Q115.24-20.45 116.97-18.43 118.69-16.4 118.69-12.95L118.69-12.95Q118.69-10.4 117.89-7.98 117.09-5.55 115.64-3.6 114.19-1.65 112.17-0.5 110.14 0.65 107.64 0.65ZM108.79-4.75L108.79-4.75Q111.64-4.75 113.19-6.55 114.74-8.35 114.74-10.7L114.74-10.7Q114.74-12.75 113.62-13.88 112.49-15 110.64-15L110.64-15Q108.79-15 107.34-13.88 105.89-12.75 104.89-10.93 103.89-9.1 103.34-7L103.34-7Q104.49-5.9 105.92-5.33 107.34-4.75 108.79-4.75ZM130.44 0.65L130.44 0.65Q126.99 0.65 124.91-1.23 122.84-3.1 122.84-6.75L122.84-6.75Q122.84-8.45 123.31-10.05 123.79-11.65 124.59-13.05L124.59-13.05Q123.79-12.55 123.39-12.55L123.39-12.55Q122.79-12.55 122.56-13.23 122.34-13.9 122.34-14.55L122.34-14.55Q122.34-15.7 122.81-16.38 123.29-17.05 123.74-17.4L123.74-17.4Q124.79-18.3 127.04-19.38 129.29-20.45 132.44-20.45L132.44-20.45Q136.74-20.45 139.11-18.05 141.49-15.65 141.49-11.35L141.49-11.35Q141.49-8 140.09-5.28 138.69-2.55 136.21-0.95 133.74 0.65 130.44 0.65ZM131.99-4.45L131.99-4.45Q134.49-4.45 136.21-6.03 137.94-7.6 137.94-10.2L137.94-10.2Q137.94-12.9 136.19-14.05 134.44-15.2 132.14-15.2L132.14-15.2Q131.09-15.2 130.24-15 129.39-14.8 128.64-14.5L128.64-14.5Q127.94-13.5 127.39-12.25 126.84-11 126.84-9.5L126.84-9.5Q126.84-7 128.34-5.73 129.84-4.45 131.99-4.45ZM151.54 0.65L151.54 0.65Q148.54 0.65 146.71-1.23 144.89-3.1 144.89-6.6L144.89-6.6Q144.89-9.1 145.86-11.58 146.84-14.05 148.69-16.05 150.54-18.05 153.14-19.25 155.74-20.45 158.99-20.45L158.99-20.45Q161.99-20.45 164.11-19.43 166.24-18.4 166.24-16.65L166.24-16.65Q166.24-16.2 166.14-15.48 166.04-14.75 165.89-14.3L165.89-14.3Q165.74-13.9 165.46-13.58 165.19-13.25 164.74-13.25L164.74-13.25Q164.54-13.25 163.99-13.4L163.99-13.4Q163.79-12.35 163.69-11.35 163.59-10.35 163.59-9.35L163.59-9.35Q163.59-7.45 164.16-5.98 164.74-4.5 166.44-4.15L166.44-4.15Q166.89-4.05 167.16-3.85 167.44-3.65 167.44-3L167.44-3Q167.44-2.45 167.16-1.6 166.89-0.75 166.11-0.08 165.34 0.6 163.89 0.6L163.89 0.6Q161.94 0.6 160.89-0.83 159.84-2.25 159.84-4.9L159.84-4.9Q158.49-2.45 156.41-0.9 154.34 0.65 151.54 0.65ZM153.14-4.55L153.14-4.55Q155.14-4.55 156.66-5.8 158.19-7.05 159.04-8.95L159.04-8.95Q159.59-10.15 159.89-11.58 160.19-13 160.29-14.4L160.29-14.4Q159.44-14.8 158.34-15.05 157.24-15.3 156.04-15.3L156.04-15.3Q152.99-15.3 151.01-13.5 149.04-11.7 149.04-9L149.04-9Q149.04-7 150.14-5.78 151.24-4.55 153.14-4.55ZM173.53 0.55L173.53 0.55Q172.73 0.55 172.26 0.28 171.78 0 171.93-0.65L171.93-0.65Q172.48-2.8 172.86-5.03 173.23-7.25 173.23-9.3L173.23-9.3Q173.23-11.95 172.91-13.18 172.58-14.4 172.03-14.88 171.48-15.35 170.68-15.6L170.68-15.6Q170.33-15.75 170.06-16 169.78-16.25 169.78-16.7L169.78-16.7Q169.78-17.4 170.33-18.25 170.88-19.1 171.88-19.73 172.88-20.35 174.18-20.35L174.18-20.35Q175.88-20.35 176.56-19.18 177.23-18 177.23-16.1L177.23-16.1Q178.13-18.1 179.46-19.28 180.78-20.45 182.78-20.45L182.78-20.45Q184.13-20.45 185.03-19.85 185.93-19.25 185.93-17.9L185.93-17.9Q185.93-16.55 185.06-15.38 184.18-14.2 183.28-14.2L183.28-14.2Q183.13-14.2 182.93-14.25 182.73-14.3 182.58-14.5L182.58-14.5Q181.93-15.3 180.98-15.3L180.98-15.3Q179.53-15.3 178.43-13.4 177.33-11.5 177.23-8.15L177.23-8.15Q177.28-6.9 177.31-5.6 177.33-4.3 177.33-3.7L177.33-3.7Q177.33-1.85 176.31-0.65 175.28 0.55 173.53 0.55ZM192.68 0.65L192.68 0.65Q189.68 0.65 187.96-1.35 186.23-3.35 186.23-6.8L186.23-6.8Q186.23-9.35 187.06-11.8 187.88-14.25 189.38-16.2 190.88-18.15 192.88-19.3 194.88-20.45 197.23-20.45L197.23-20.45Q198.73-20.45 199.91-20 201.08-19.55 201.98-18.85L201.98-18.85Q201.93-22.25 201.63-24.95 201.33-27.65 200.18-29.95L200.18-29.95Q199.98-30.35 199.86-30.68 199.73-31 199.73-31.3L199.73-31.3Q199.73-32 200.31-32.6 200.88-33.2 201.73-33.6 202.58-34 203.33-34L203.33-34Q204.68-34 205.36-32.83 206.03-31.65 206.23-29.63 206.43-27.6 206.43-25L206.43-25Q206.43-21.2 206.08-18.15 205.73-15.1 205.43-12.8L205.43-12.8Q205.23-11.3 205.08-10.2 204.93-9.1 204.93-8.4L204.93-8.4Q204.93-4.85 207.98-4.2L207.98-4.2Q208.78-4.05 208.78-3.15L208.78-3.15Q208.78-2.6 208.46-1.75 208.13-0.9 207.28-0.23 206.43 0.45 204.83 0.45L204.83 0.45Q202.68 0.45 201.93-1 201.18-2.45 201.18-5.4L201.18-5.4Q199.78-2.85 197.63-1.1 195.48 0.65 192.68 0.65ZM194.23-4.7L194.23-4.7Q195.63-4.7 197.03-5.6 198.43-6.5 199.53-8.05L199.53-8.05Q200.18-9 200.71-10.23 201.23-11.45 201.68-12.7L201.68-12.7Q199.13-15 196.03-15L196.03-15Q193.33-15 191.73-13.38 190.13-11.75 190.13-9.35L190.13-9.35Q190.13-7.3 191.33-6 192.53-4.7 194.23-4.7Z" opacity="1" transform="matrix(1,0,0,1,0,0)" fill="#5201fe" class="wordmark-text-0" data-fill-palette-color="primary" id="text-0"></path></svg></g></svg></g><g transform="matrix(1,0,0,1,0,69.65077532738175)"><svg viewBox="0 0 244.43135999999998 16.549606419181252" height="16.549606419181252" width="244.43135999999998"><g transform="matrix(1,0,0,1,0,0)"><svg width="244.43135999999998" viewBox="0.65 -38.7 733.96 49.7" height="16.549606419181252" data-palette-color="#5201fe"><path d="M0.65-4.55L4.55-9.95Q8.8-5.7 13.05-5.7L13.05-5.7Q15.25-5.7 16.57-6.73 17.9-7.75 17.9-9.38 17.9-11 16.3-12.13 14.7-13.25 12.43-14.1 10.15-14.95 7.9-16.03 5.65-17.1 4.05-19.1 2.45-21.1 2.45-23.95L2.45-23.95Q2.45-28.45 6.2-31.73 9.95-35 15.1-35L15.1-35Q17.45-35 19.65-34.5 21.85-34 23.9-33.05L23.9-33.05 20.5-25.75Q19.1-26.85 16.68-27.78 14.25-28.7 12.43-28.7 10.6-28.7 9.47-27.83 8.35-26.95 8.35-25.5 8.35-24.05 9.95-22.93 11.55-21.8 13.83-20.95 16.1-20.1 18.38-19.07 20.65-18.05 22.25-16.05 23.85-14.05 23.85-11.2L23.85-11.2Q23.85-6.5 20.1-2.98 16.35 0.55 11.35 0.55L11.35 0.55Q7.6 0.55 4.7-1.25L4.7-1.25Q2.15-2.8 1.1-4L1.1-4 0.65-4.55ZM35.2 11L28.75 9.65 33.9-1.9 30.2-12 25.15-24.15 31.8-25.4 35-14.75 36.65-9.7 37.3-9.7 38.5-13.35 42.1-25.45 48.25-24.7 39.4-1.45 35.2 11ZM65.8-12.65Q65.8-16.1 65.2-17.25 64.59-18.4 62.4-18.4 60.2-18.4 57.4-16.65L57.4-16.65 57.4-13 57.95-1.25 51.25 0 51.85-12.15Q51.65-18.85 50.75-24.15L50.75-24.15 56.8-25.45Q57.15-22.55 57.3-19.8L57.3-19.8Q58.05-20.8 59-21.78 59.95-22.75 62-23.98 64.05-25.2 66.32-25.2 68.59-25.2 70.15-23.43 71.7-21.65 71.7-18.6L71.7-18.6 71.4-13 71.95-1 65.2 0.25 65.8-12.65ZM86.04-19.25Q83.84-19.25 82.64-17.68 81.44-16.1 81.44-12.85 81.44-9.6 82.67-7.63 83.89-5.65 86.24-5.65L86.24-5.65Q87.44-5.65 88.59-6.4 89.74-7.15 90.34-7.9L90.34-7.9 90.89-8.7 93.39-6.1Q93.24-5.85 93.02-5.4 92.79-4.95 91.92-3.8 91.04-2.65 90.07-1.78 89.09-0.9 87.54-0.18 85.99 0.55 84.29 0.55L84.29 0.55Q80.54 0.55 78.19-2.5 75.84-5.55 75.84-10.45L75.84-10.45Q75.84-16.55 79.39-21.15 82.94-25.75 87.69-25.75L87.69-25.75Q89.14-25.75 90.59-25.33 92.04-24.9 93.54-24L93.54-24 90.04-17.85Q88.24-19.25 86.04-19.25ZM111.54 11L105.09 9.65 110.24-1.9 106.54-12 101.49-24.15 108.14-25.4 111.34-14.75 112.99-9.7 113.64-9.7 114.84-13.35 118.44-25.45 124.59-24.7 115.74-1.45 111.54 11ZM126.14-10.45Q126.14-16.85 129.59-21.3 133.04-25.75 137.66-25.75 142.29-25.75 144.86-22.75 147.44-19.75 147.44-14.8L147.44-14.8Q147.44-8.2 144.11-3.83 140.79 0.55 135.74 0.55L135.74 0.55Q131.59 0.55 128.86-2.58 126.14-5.7 126.14-10.45L126.14-10.45ZM141.84-12.2L141.84-12.2Q141.84-19.45 136.89-19.45L136.89-19.45Q131.74-19.45 131.74-12.65L131.74-12.65Q131.74-9.1 133.19-7.1 134.64-5.1 137.01-5.1 139.39-5.1 140.61-6.93 141.84-8.75 141.84-12.2ZM157.73 0L157.73 0Q155.03 0 153.36-1.78 151.68-3.55 151.68-6.45L151.68-6.45 151.98-12.2 151.43-24.2 158.13-25.45 157.48-10.25Q157.48-8.1 158.26-7.1 159.03-6.1 160.73-6.1 162.43-6.1 165.43-7.8L165.43-7.8 165.43-10.8 164.88-23.95 171.63-25.2 171.03-12.7 171.08-8.6Q171.08-5.4 172.73-2.15L172.73-2.15 167.53 0.15Q165.88-3.1 165.53-5.05L165.53-5.05Q161.03 0 157.73 0ZM176.68-24.15L176.68-24.15 182.73-25.45Q183.18-21.6 183.33-18.15L183.33-18.15Q187.88-25.2 191.88-25.2L191.88-25.2 191.33-17.4Q188.43-17.4 186.76-16.88 185.08-16.35 183.33-14.8L183.33-14.8 183.33-13 183.88-1.25 177.18 0 177.78-12.15Q177.58-18.85 176.68-24.15ZM202.73-24.2L209.43-25.45 208.83-13 209.38-1.25 202.68 0 203.28-12.15 202.73-24.2ZM202.38-32.77Q202.38-34.45 203.68-35.77 204.98-37.1 206.68-37.1 208.38-37.1 209.28-36.18 210.18-35.25 210.18-33.4 210.18-31.55 208.9-30.23 207.63-28.9 205.95-28.9 204.28-28.9 203.33-30 202.38-31.1 202.38-32.77ZM228.12-4.9L228.12-4.9Q224.22 0 221.37 0L221.37 0Q217.82 0 215.55-2.9 213.27-5.8 213.27-10.35L213.27-10.35Q213.27-16.6 216.75-20.9 220.22-25.2 225.27-25.2L225.27-25.2 228.07-24.8 228.07-25.75 227.47-37.45 234.32-38.7 233.67-13 233.67-8.6Q233.67-5.6 235.17-1.7L235.17-1.7 229.77 0.55Q228.32-2.45 228.12-4.9ZM218.87-12.95Q218.87-9.75 220.05-7.95 221.22-6.15 223.45-6.15 225.67-6.15 228.07-7.95L228.07-7.95 228.07-18.75Q225.07-19.35 223.62-19.35L223.62-19.35Q221.37-19.35 220.12-17.75 218.87-16.15 218.87-12.95ZM249.02-5.1L249.02-5.1Q250.47-5.1 252.07-5.85 253.67-6.6 254.57-7.35L254.57-7.35 255.47-8.1 257.77-5.3Q257.27-4.45 256.22-3.35 255.17-2.25 254.09-1.48 253.02-0.7 251.25-0.08 249.47 0.55 247.57 0.55L247.57 0.55Q243.52 0.55 240.97-2.53 238.42-5.6 238.42-10.45L238.42-10.45Q238.42-16.55 241.97-21.15 245.52-25.75 250.27-25.75L250.27-25.75Q253.92-25.75 255.94-23.7 257.97-21.65 257.97-17.95L257.97-17.95Q257.97-15.75 257.22-12.95L257.22-12.95 256.22-11.9 243.72-10.75Q244.57-5.1 249.02-5.1ZM249.02-20.6L249.02-20.6Q246.82-20.6 245.32-18.82 243.82-17.05 243.57-14.3L243.57-14.3 252.07-15.35Q252.22-16.5 252.22-17.25L252.22-17.25Q252.22-20.6 249.02-20.6ZM267.32 0Q264.37 0 262.49-1.88 260.62-3.75 260.62-6.93 260.62-10.1 263.52-12.43 266.42-14.75 270.57-14.75L270.57-14.75 273.97-14.75 273.97-15.6Q273.97-18.05 272.97-18.95 271.97-19.85 269.22-19.85L269.22-19.85Q268.07-19.85 266.49-19.38 264.92-18.9 262.97-17.9L262.97-17.9 261.52-21.85Q263.67-23.35 266.74-24.55 269.82-25.75 271.82-25.75L271.82-25.75Q279.67-25.75 279.67-18.15L279.67-18.15 279.67-8.35Q279.67-5.55 281.42-2.1L281.42-2.1 276.12 0.15Q274.87-2.25 274.27-4.15L274.27-4.15Q271.52 0 267.32 0L267.32 0ZM269.42-5.1L269.42-5.1Q271.42-5.1 273.97-7.15L273.97-7.15 273.97-10.5Q271.32-11.1 269.67-11.1L269.67-11.1Q266.52-11.1 266.52-8.3L266.52-8.3Q266.52-6.85 267.32-5.98 268.12-5.1 269.42-5.1ZM293.31-4.65L293.31-4.65Q295.92-4.65 295.92-6.95L295.92-6.95Q295.92-7.75 294.79-8.45 293.67-9.15 292.04-9.85 290.42-10.55 288.79-11.43 287.17-12.3 286.04-13.85 284.92-15.4 284.92-17.4L284.92-17.4Q284.92-20.75 287.87-23.25 290.81-25.75 294.67-25.75L294.67-25.75Q296.47-25.75 298.19-25.33 299.92-24.9 301.51-24L301.51-24 298.17-17.9Q297.81-18.2 297.26-18.65 296.72-19.1 295.19-19.83 293.67-20.55 292.49-20.55 291.31-20.55 290.69-20.03 290.06-19.5 290.06-18.57 290.06-17.65 291.79-16.73 293.51-15.8 295.56-15.03 297.62-14.25 299.34-12.48 301.06-10.7 301.06-8.25L301.06-8.25Q301.06-4.75 298.19-2.1 295.31 0.55 291.56 0.55L291.56 0.55Q289.17 0.55 287.09-0.5 285.01-1.55 284.12-2.6L284.12-2.6 283.22-3.65 287.17-8.25Q287.47-7.85 288.01-7.25 288.56-6.65 290.19-5.65 291.81-4.65 293.31-4.65ZM310.81-3.35L310.81-3.35Q310.81 0.9 304.61 5.65L304.61 5.65 302.56 4.15Q305.51 0.7 305.51-1.8L305.51-1.8Q305.51-3.35 304.21-5.75L304.21-5.75 309.11-7.7Q310.81-5.55 310.81-3.35ZM336.66-25.25L336.66-25.25Q340.01-25.25 342.11-22.35 344.21-19.45 344.21-14.9L344.21-14.9Q344.21-8.35 340.78-4.17 337.36 0 331.91 0L331.91 0Q329.41 0 323.51-0.8L323.51-0.8 324.01-12.15 323.41-37.45 330.26-38.7 329.61-25.8 329.61-20.4Q330.16-21.2 330.96-22.1 331.76-23 333.46-24.13 335.16-25.25 336.66-25.25ZM334.71-18.75L334.71-18.75Q332.41-18.75 329.61-17.35L329.61-17.35 329.61-13 329.91-5.65Q332.01-5.4 333.86-5.4L333.86-5.4Q338.66-5.4 338.66-12.08 338.66-18.75 334.71-18.75ZM347.81-24.15L347.81-24.15 353.85-25.45Q354.31-21.6 354.45-18.15L354.45-18.15Q359-25.2 363-25.2L363-25.2 362.45-17.4Q359.56-17.4 357.88-16.88 356.2-16.35 354.45-14.8L354.45-14.8 354.45-13 355-1.25 348.31 0 348.9-12.15Q348.7-18.85 347.81-24.15ZM371.15 0Q368.2 0 366.33-1.88 364.45-3.75 364.45-6.93 364.45-10.1 367.35-12.43 370.25-14.75 374.4-14.75L374.4-14.75 377.8-14.75 377.8-15.6Q377.8-18.05 376.8-18.95 375.8-19.85 373.05-19.85L373.05-19.85Q371.9-19.85 370.33-19.38 368.75-18.9 366.8-17.9L366.8-17.9 365.35-21.85Q367.5-23.35 370.58-24.55 373.65-25.75 375.65-25.75L375.65-25.75Q383.5-25.75 383.5-18.15L383.5-18.15 383.5-8.35Q383.5-5.55 385.25-2.1L385.25-2.1 379.95 0.15Q378.7-2.25 378.1-4.15L378.1-4.15Q375.35 0 371.15 0L371.15 0ZM373.25-5.1L373.25-5.1Q375.25-5.1 377.8-7.15L377.8-7.15 377.8-10.5Q375.15-11.1 373.5-11.1L373.5-11.1Q370.35-11.1 370.35-8.3L370.35-8.3Q370.35-6.85 371.15-5.98 371.95-5.1 373.25-5.1ZM389.6-24.2L396.3-25.45 395.7-13 396.25-1.25 389.55 0 390.15-12.15 389.6-24.2ZM389.25-32.77Q389.25-34.45 390.55-35.77 391.85-37.1 393.55-37.1 395.25-37.1 396.15-36.18 397.05-35.25 397.05-33.4 397.05-31.55 395.77-30.23 394.5-28.9 392.82-28.9 391.15-28.9 390.2-30 389.25-31.1 389.25-32.77ZM416.3-12.65Q416.3-16.1 415.7-17.25 415.1-18.4 412.9-18.4 410.7-18.4 407.9-16.65L407.9-16.65 407.9-13 408.45-1.25 401.75 0 402.35-12.15Q402.15-18.85 401.25-24.15L401.25-24.15 407.3-25.45Q407.65-22.55 407.8-19.8L407.8-19.8Q408.55-20.8 409.5-21.78 410.45-22.75 412.5-23.98 414.55-25.2 416.82-25.2 419.1-25.2 420.65-23.43 422.2-21.65 422.2-18.6L422.2-18.6 421.9-13 422.45-1 415.7 0.25 416.3-12.65ZM435.49-4.65L435.49-4.65Q438.09-4.65 438.09-6.95L438.09-6.95Q438.09-7.75 436.97-8.45 435.84-9.15 434.22-9.85 432.59-10.55 430.97-11.43 429.34-12.3 428.22-13.85 427.09-15.4 427.09-17.4L427.09-17.4Q427.09-20.75 430.04-23.25 432.99-25.75 436.84-25.75L436.84-25.75Q438.64-25.75 440.37-25.33 442.09-24.9 443.69-24L443.69-24 440.34-17.9Q439.99-18.2 439.44-18.65 438.89-19.1 437.37-19.83 435.84-20.55 434.67-20.55 433.49-20.55 432.87-20.03 432.24-19.5 432.24-18.57 432.24-17.65 433.97-16.73 435.69-15.8 437.74-15.03 439.79-14.25 441.52-12.48 443.24-10.7 443.24-8.25L443.24-8.25Q443.24-4.75 440.37-2.1 437.49 0.55 433.74 0.55L433.74 0.55Q431.34 0.55 429.27-0.5 427.19-1.55 426.29-2.6L426.29-2.6 425.39-3.65 429.34-8.25Q429.64-7.85 430.19-7.25 430.74-6.65 432.37-5.65 433.99-4.65 435.49-4.65ZM446.69-24.2L449.59-24.2 449.59-29.65 456.34-30.95 455.69-24.2 461.74-24.2 461.19-20.1 455.49-20.1 455.24-9.65Q455.24-7.3 455.69-6.53 456.14-5.75 457.34-5.75 458.54-5.75 460.54-6.3L460.54-6.3 460.84-2.75Q457.54 0 455.04 0 452.54 0 450.94-1.83 449.34-3.65 449.34-6.6L449.34-6.6 449.64-12.2 449.59-20.1 446.14-20.1 446.69-24.2ZM463.89-10.45Q463.89-16.85 467.34-21.3 470.79-25.75 475.41-25.75 480.04-25.75 482.61-22.75 485.19-19.75 485.19-14.8L485.19-14.8Q485.19-8.2 481.86-3.83 478.54 0.55 473.49 0.55L473.49 0.55Q469.34 0.55 466.61-2.58 463.89-5.7 463.89-10.45L463.89-10.45ZM479.59-12.2L479.59-12.2Q479.59-19.45 474.64-19.45L474.64-19.45Q469.49-19.45 469.49-12.65L469.49-12.65Q469.49-9.1 470.94-7.1 472.39-5.1 474.76-5.1 477.14-5.1 478.36-6.93 479.59-8.75 479.59-12.2ZM488.94-24.15L488.94-24.15 494.99-25.45Q495.44-21.6 495.59-18.15L495.59-18.15Q500.14-25.2 504.14-25.2L504.14-25.2 503.59-17.4Q500.69-17.4 499.01-16.88 497.34-16.35 495.59-14.8L495.59-14.8 495.59-13 496.14-1.25 489.44 0 490.04-12.15Q489.84-18.85 488.94-24.15ZM521.78-12.65Q521.78-16.1 521.18-17.25 520.59-18.4 518.38-18.4 516.18-18.4 513.38-16.65L513.38-16.65 513.38-13 513.93-1.25 507.24 0 507.83-12.15Q507.63-18.85 506.74-24.15L506.74-24.15 512.78-25.45Q513.13-22.55 513.28-19.8L513.28-19.8Q514.03-20.8 514.99-21.78 515.93-22.75 517.99-23.98 520.03-25.2 522.13-25.2 524.24-25.2 525.68-23.85 527.13-22.5 527.53-20.15L527.53-20.15Q531.68-25.2 535.93-25.2L535.93-25.2Q538.59-25.2 540.13-23.43 541.68-21.65 541.68-18.6L541.68-18.6 541.38-13 541.93-1 535.18 0.25 535.78-12.65Q535.78-16.1 535.18-17.25 534.59-18.4 532.43-18.4 530.28-18.4 527.59-16.75L527.59-16.75 527.38-13 527.93-1 521.18 0.25 521.78-12.65ZM554.18-24.2L557.08-24.2 557.08-29.65 563.83-30.95 563.18-24.2 569.23-24.2 568.68-20.1 562.98-20.1 562.73-9.65Q562.73-7.3 563.18-6.53 563.63-5.75 564.83-5.75 566.03-5.75 568.03-6.3L568.03-6.3 568.33-2.75Q565.03 0 562.53 0 560.03 0 558.43-1.83 556.83-3.65 556.83-6.6L556.83-6.6 557.13-12.2 557.08-20.1 553.63-20.1 554.18-24.2ZM571.38-10.45Q571.38-16.85 574.83-21.3 578.28-25.75 582.9-25.75 587.53-25.75 590.1-22.75 592.68-19.75 592.68-14.8L592.68-14.8Q592.68-8.2 589.35-3.83 586.03 0.55 580.98 0.55L580.98 0.55Q576.83 0.55 574.1-2.58 571.38-5.7 571.38-10.45L571.38-10.45ZM587.08-12.2L587.08-12.2Q587.08-19.45 582.13-19.45L582.13-19.45Q576.98-19.45 576.98-12.65L576.98-12.65Q576.98-9.1 578.43-7.1 579.88-5.1 582.25-5.1 584.63-5.1 585.85-6.93 587.08-8.75 587.08-12.2ZM595.22 4.95L595.22 4.95Q595.22 0.55 603.42-1.95L603.42-1.95Q601.47-2.95 601.47-4.55L601.47-4.55Q601.47-5.2 601.97-5.85 602.47-6.5 603.42-7.2L603.42-7.2 603.42-7.6Q599.82-7.6 597.7-9.6 595.57-11.6 595.57-14.95L595.57-14.95Q595.57-19.3 599.12-22.53 602.67-25.75 607.52-25.75L607.52-25.75Q608.77-25.75 611.17-25.25 613.57-24.75 615.87-24.75L615.87-24.75 619.72-24.75 619.22-20.4 615.47-20.85Q615.97-19.4 615.97-17.55 615.97-15.7 615.1-13.88 614.22-12.05 613-10.95 611.77-9.85 610.55-9.03 609.32-8.2 608.45-7.58 607.57-6.95 607.57-6.45L607.57-6.45Q607.57-5.5 609.57-4.8L609.57-4.8Q614.87-2.65 616.75-1.15 618.62 0.35 618.62 2.55L618.62 2.55Q618.62 6.25 614.9 8.63 611.17 11 606.02 11 600.87 11 598.05 9.35 595.22 7.7 595.22 4.95ZM610.32-16.05L610.32-16.05Q610.32-18.5 609.22-19.65 608.12-20.8 605.77-20.8L605.77-20.8Q601.22-20.8 601.22-16.32 601.22-11.85 606.07-11.85L606.07-11.85Q610.32-11.85 610.32-16.05ZM612.12 3.3L612.12 3.3Q612.12 2.4 611.17 1.63 610.22 0.85 607.77-0.2L607.77-0.2Q604.12 0.8 602.75 1.65 601.37 2.5 601.37 3.75 601.37 5 602.75 5.78 604.12 6.55 606.57 6.55 609.02 6.55 610.57 5.65 612.12 4.75 612.12 3.3ZM631.37-5.1L631.37-5.1Q632.82-5.1 634.42-5.85 636.02-6.6 636.92-7.35L636.92-7.35 637.82-8.1 640.12-5.3Q639.62-4.45 638.57-3.35 637.52-2.25 636.45-1.48 635.37-0.7 633.6-0.08 631.82 0.55 629.92 0.55L629.92 0.55Q625.87 0.55 623.32-2.53 620.77-5.6 620.77-10.45L620.77-10.45Q620.77-16.55 624.32-21.15 627.87-25.75 632.62-25.75L632.62-25.75Q636.27-25.75 638.3-23.7 640.32-21.65 640.32-17.95L640.32-17.95Q640.32-15.75 639.57-12.95L639.57-12.95 638.57-11.9 626.07-10.75Q626.92-5.1 631.37-5.1ZM631.37-20.6L631.37-20.6Q629.17-20.6 627.67-18.82 626.17-17.05 625.92-14.3L625.92-14.3 634.42-15.35Q634.57-16.5 634.57-17.25L634.57-17.25Q634.57-20.6 631.37-20.6ZM643.72-24.2L646.62-24.2 646.62-29.65 653.37-30.95 652.72-24.2 658.77-24.2 658.22-20.1 652.52-20.1 652.27-9.65Q652.27-7.3 652.72-6.53 653.17-5.75 654.37-5.75 655.57-5.75 657.57-6.3L657.57-6.3 657.87-2.75Q654.57 0 652.07 0 649.57 0 647.97-1.83 646.37-3.65 646.37-6.6L646.37-6.6 646.67-12.2 646.62-20.1 643.17-20.1 643.72-24.2ZM677.02-12.65Q677.02-16.1 676.42-17.25 675.82-18.4 673.62-18.4 671.42-18.4 668.62-16.65L668.62-16.65 668.62-13 669.17-1.25 662.42 0 663.02-12.15 662.42-37.45 669.27-38.7 668.62-25.75 668.62-19.9Q669.37-20.9 670.32-21.85 671.27-22.8 673.27-24 675.27-25.2 677.54-25.2 679.82-25.2 681.37-23.43 682.92-21.65 682.92-18.6L682.92-18.6 682.62-13 683.17-1 676.42 0.25 677.02-12.65ZM697.66-5.1L697.66-5.1Q699.11-5.1 700.71-5.85 702.31-6.6 703.21-7.35L703.21-7.35 704.11-8.1 706.41-5.3Q705.91-4.45 704.86-3.35 703.81-2.25 702.74-1.48 701.66-0.7 699.89-0.08 698.11 0.55 696.21 0.55L696.21 0.55Q692.16 0.55 689.61-2.53 687.06-5.6 687.06-10.45L687.06-10.45Q687.06-16.55 690.61-21.15 694.16-25.75 698.91-25.75L698.91-25.75Q702.56-25.75 704.59-23.7 706.61-21.65 706.61-17.95L706.61-17.95Q706.61-15.75 705.86-12.95L705.86-12.95 704.86-11.9 692.36-10.75Q693.21-5.1 697.66-5.1ZM697.66-20.6L697.66-20.6Q695.46-20.6 693.96-18.82 692.46-17.05 692.21-14.3L692.21-14.3 700.71-15.35Q700.86-16.5 700.86-17.25L700.86-17.25Q700.86-20.6 697.66-20.6ZM710.41-24.15L710.41-24.15 716.46-25.45Q716.91-21.6 717.06-18.15L717.06-18.15Q721.61-25.2 725.61-25.2L725.61-25.2 725.06-17.4Q722.16-17.4 720.49-16.88 718.81-16.35 717.06-14.8L717.06-14.8 717.06-13 717.61-1.25 710.91 0 711.51-12.15Q711.31-18.85 710.41-24.15ZM727.36-3.35Q727.36-4.95 728.53-6.18 729.71-7.4 731.36-7.4L731.36-7.4Q734.61-7.4 734.61-4.1L734.61-4.1Q734.61-2.2 733.43-0.95 732.26 0.3 730.68 0.3 729.11 0.3 728.23-0.73 727.36-1.75 727.36-3.35Z" opacity="1" transform="matrix(1,0,0,1,0,0)" fill="#5201fe" class="slogan-text-1" data-fill-palette-color="secondary" id="text-1"></path></svg></g></svg></g></svg></g></svg></g></svg></g></svg></g></svg></g><path d="M175.06 74.5L175.06 15.119 392.023 15.119 392.023 232.081 175.06 232.081 175.06 172.7 180.142 172.7 180.142 227 386.942 227 386.942 20.2 180.142 20.2 180.142 74.5Z" fill="#5201fe" stroke="transparent" data-fill-palette-color="tertiary"></path></svg></g><defs></defs></svg><rect width="395.52" height="247.2" fill="none" stroke="none" visibility="hidden"></rect></g></svg></g></svg>